<?xml version="1.0" encoding="utf-8"?>
<!-- Generator: Adobe Illustrator 25.3.1, SVG Export Plug-In . SVG Version: 6.00 Build 0)  -->
<svg version="1.1" xmlns="http://www.w3.org/2000/svg" xmlns:xlink="http://www.w3.org/1999/xlink" x="0px" y="0px"
	 viewBox="0 0 841.9 595.3" style="enable-background:new 0 0 841.9 595.3;" xml:space="preserve">
<style type="text/css">
	.st0{fill:#61DAFB;}
	.st1{fill:#FFFFFF;}
</style>
<g id="Layer_1">
</g>
<g id="Layer_2">
	<rect x="175.7" y="78" class="st0" width="490.6" height="436.9"/>
	<g>
		<path class="st1" d="M212.4,370.8l8.2-12.1c7.2,4.2,15,6.4,22.3,6.4c5,0,7.1-1.4,7.1-3.4c0-2.7-3-3.2-12.5-5.2
			c-15.7-3.4-21.4-9.3-21.4-18.2c0-11.2,10.6-18.5,27.1-18.5c10.7,0,19.3,4.2,25.3,8l-8.7,11.6c-5.9-3.4-12.5-5.2-18.5-5.2
			c-3.6,0-5.9,1.1-5.9,3.2c0,2.5,3,2.7,11.9,4.8c17.1,3.9,22.1,9,22.1,18.5c0,10.7-10.1,18.9-29.2,18.9
			C230.4,379.5,219.7,375.6,212.4,370.8z"/>
		<path class="st1" d="M294,353.9v-17.6h-13.7v-14.6l14.6-0.7l2.5-17.1h16.2v17.1h22.6v15.3h-22.6v17.2c0,8.1,3.8,10.6,11.1,10.6
			c3.9,0,7.3-0.8,10.4-1.8l3.4,14.1c-5,1.4-11.2,3-18.9,3C300.9,379.5,294,369.2,294,353.9z"/>
		<path class="st1" d="M355.8,321.1h16.1l1.5,12.1h0.5c5.5-9.3,13.7-13.5,22.2-13.5c5.2,0,7.6,0.9,10.8,2.3l-3.9,16.4
			c-3.4-1-5.8-1.6-9.9-1.6c-6.5,0-13.5,3.4-17.7,13v28.3h-19.6V321.1z"/>
		<path class="st1" d="M442.5,336.4h-21.7v-15.3h41.3v57h-19.6V336.4z M439,301.9c0-6.8,5.2-11.6,12.5-11.6s12.5,4.8,12.5,11.6
			c0,6.8-5.2,11.4-12.5,11.4S439,308.8,439,301.9z"/>
		<path class="st1" d="M488.1,321.1h16l1.4,6.8h0.5c4.6-4.3,10.7-8.2,19-8.2c12.7,0,18.1,9.1,18.1,23.3v35.1h-19.6v-32.6
			c0-6.4-1.6-9.1-6.6-9.1c-3.6,0-6.2,1.6-9.1,4.3v37.4h-19.6V321.1z"/>
		<path class="st1" d="M554.2,387.4c0-4.7,3-8.2,8.7-10.9V376c-3.2-2.1-5.7-5-5.7-9.8c0-3.9,2.9-8,6.8-10.7v-0.5
			c-4.3-2.7-7.8-8-7.8-14.6c0-14.1,12-20.7,25.2-20.7c3.4,0,6.8,0.5,9.7,1.4h23v14.1h-10.3c0.8,1.4,1.6,3.6,1.6,5.9
			c0,13.5-10.5,18.9-24.1,18.9c-2.1,0-4.4-0.2-7.2-0.8c-1.4,1-1.8,1.7-1.8,3.3c0,2.5,2.5,3.4,8.9,3.4h9.7c15,0,23.7,4.3,23.7,14.8
			c0,12.3-13.6,20.7-34.9,20.7C565.7,401.6,554.2,397.7,554.2,387.4z M596.1,384.2c0-3-3.2-3.4-8.9-3.4h-5.7c-4.4,0-6.7-0.2-8.7-0.7
			c-1.9,1.4-2.9,2.5-2.9,4.1c0,3.6,5.2,5.2,12.9,5.2C590.5,389.5,596.1,387.4,596.1,384.2z M588.4,340.5c0-5.2-3.2-7.8-7-7.8
			s-6.8,2.5-6.8,7.8c0,5.5,3.1,8,6.8,8S588.4,345.9,588.4,340.5z"/>
		<path class="st1" d="M212.4,461.1c0-8.1,5.9-14.8,14.8-14.8c8.9,0,14.8,6.7,14.8,14.8c0,8.2-5.9,14.8-14.8,14.8
			C218.3,475.9,212.4,469.3,212.4,461.1z"/>
		<path class="st1" d="M283.5,444.9l-17.9-27.4h21l4.7,8c1.6,3.2,3.9,6.6,5.6,9.8h0.5c1.3-3.2,2.8-6.6,4.1-9.8l3.8-8h20.4l-18,29.6
			l19,27.4h-21l-5.2-8c-1.9-3.2-4.2-6.6-6.2-9.8h-0.5c-1.5,3.2-3.2,6.5-4.7,9.8l-4.2,8h-20.4L283.5,444.9z"/>
		<path class="st1" d="M332.8,417.5h14.6l1.4,6.8h0.5c1.8-4.3,5.5-8.2,12.1-8.2c4.7,0,8.3,3.2,9.6,9.1c1.6-4.8,5.8-9.1,12.3-9.1
			c8.2,0,12.8,7.3,12.8,18.7v39.7h-18.5v-38.3c0-2.4-0.5-3.4-1.9-3.4c-1.5,0-2.7,1.4-3.8,4.3v37.4H357v-38.3c0-2.4-0.8-3.4-2.3-3.4
			c-1.4,0-2.4,1.4-3.4,4.3v37.4h-18.5V417.5z"/>
		<path class="st1" d="M419.9,451v-40.6h-17.1v-15.3h36.7v56.5c0,6.6,4.6,8.4,8.5,8.4c2.4,0,4.9-0.5,8.2-1.6l4.2,14.4
			c-6.2,1.8-10.3,3-17.7,3C427.6,475.9,419.9,465.9,419.9,451z"/>
	</g>
</g>
</svg>
